<mxfile host="65bd71144e">
    <diagram id="d-0hRUD2Dd4A8AOpkGT4" name="Página-1">
        <mxGraphModel dx="776" dy="433" grid="1" gridSize="10" guides="1" tooltips="1" connect="1" arrows="1" fold="1" page="1" pageScale="1" pageWidth="827" pageHeight="1169" math="0" shadow="0">
            <root>
                <mxCell id="0"/>
                <mxCell id="1" parent="0"/>
                <mxCell id="2" value="Prestamos" style="swimlane;fontStyle=0;align=center;verticalAlign=top;childLayout=stackLayout;horizontal=1;startSize=26;horizontalStack=0;resizeParent=1;resizeLast=0;collapsible=1;marginBottom=0;rounded=0;shadow=0;strokeWidth=1;" parent="1" vertex="1">
                    <mxGeometry x="280" y="80" width="210" height="160" as="geometry">
                        <mxRectangle x="230" y="140" width="160" height="26" as="alternateBounds"/>
                    </mxGeometry>
                </mxCell>
                <mxCell id="3" value="id (PK) SERIAL" style="text;align=left;verticalAlign=top;spacingLeft=4;spacingRight=4;overflow=hidden;rotatable=0;points=[[0,0.5],[1,0.5]];portConstraint=eastwest;" parent="2" vertex="1">
                    <mxGeometry y="26" width="210" height="26" as="geometry"/>
                </mxCell>
                <mxCell id="4" value="fecha_inicio DATE" style="text;align=left;verticalAlign=top;spacingLeft=4;spacingRight=4;overflow=hidden;rotatable=0;points=[[0,0.5],[1,0.5]];portConstraint=eastwest;rounded=0;shadow=0;html=0;" parent="2" vertex="1">
                    <mxGeometry y="52" width="210" height="26" as="geometry"/>
                </mxCell>
                <mxCell id="5" value="fecha termino DATE" style="text;align=left;verticalAlign=top;spacingLeft=4;spacingRight=4;overflow=hidden;rotatable=0;points=[[0,0.5],[1,0.5]];portConstraint=eastwest;rounded=0;shadow=0;html=0;strokeColor=none;" parent="2" vertex="1">
                    <mxGeometry y="78" width="210" height="26" as="geometry"/>
                </mxCell>
                <mxCell id="60" value="" style="endArrow=none;html=1;strokeColor=default;endFill=0;exitX=1;exitY=0.346;exitDx=0;exitDy=0;exitPerimeter=0;" parent="2" source="41" edge="1">
                    <mxGeometry relative="1" as="geometry">
                        <mxPoint x="-50" y="90.5" as="sourcePoint"/>
                        <mxPoint y="91" as="targetPoint"/>
                    </mxGeometry>
                </mxCell>
                <mxCell id="61" value="1:1" style="edgeLabel;resizable=0;html=1;align=center;verticalAlign=middle;strokeColor=default;fillColor=none;" parent="60" connectable="0" vertex="1">
                    <mxGeometry relative="1" as="geometry"/>
                </mxCell>
                <mxCell id="53" value="isbn (FK) VARCHAR (10) NOT NULL" style="text;align=left;verticalAlign=top;spacingLeft=4;spacingRight=4;overflow=hidden;rotatable=0;points=[[0,0.5],[1,0.5]];portConstraint=eastwest;rounded=0;shadow=0;html=0;strokeColor=#314354;fillColor=#647687;fontColor=#ffffff;" parent="2" vertex="1">
                    <mxGeometry y="104" width="210" height="26" as="geometry"/>
                </mxCell>
                <mxCell id="54" value="rut (FK) VARCHAR (10) NOT NULL" style="text;align=left;verticalAlign=top;spacingLeft=4;spacingRight=4;overflow=hidden;rotatable=0;points=[[0,0.5],[1,0.5]];portConstraint=eastwest;rounded=0;shadow=0;html=0;strokeColor=#432D57;fillColor=#76608a;fontColor=#ffffff;" parent="2" vertex="1">
                    <mxGeometry y="130" width="210" height="26" as="geometry"/>
                </mxCell>
                <mxCell id="19" value="Libros" style="swimlane;fontStyle=0;align=center;verticalAlign=top;childLayout=stackLayout;horizontal=1;startSize=26;horizontalStack=0;resizeParent=1;resizeLast=0;collapsible=1;marginBottom=0;rounded=0;shadow=0;strokeWidth=1;" parent="1" vertex="1">
                    <mxGeometry x="570" y="80" width="210" height="164" as="geometry">
                        <mxRectangle x="550" y="140" width="160" height="26" as="alternateBounds"/>
                    </mxGeometry>
                </mxCell>
                <mxCell id="36" value="isbn (PK) VARCHAR(20)  NOT NULL" style="text;align=left;verticalAlign=top;spacingLeft=4;spacingRight=4;overflow=hidden;rotatable=0;points=[[0,0.5],[1,0.5]];portConstraint=eastwest;strokeColor=#314354;fillColor=#647687;fontColor=#ffffff;" parent="19" vertex="1">
                    <mxGeometry y="26" width="210" height="26" as="geometry"/>
                </mxCell>
                <mxCell id="20" value="titulo VARCHAR(255)" style="text;align=left;verticalAlign=top;spacingLeft=4;spacingRight=4;overflow=hidden;rotatable=0;points=[[0,0.5],[1,0.5]];portConstraint=eastwest;" parent="19" vertex="1">
                    <mxGeometry y="52" width="210" height="30" as="geometry"/>
                </mxCell>
                <mxCell id="21" value="paginas INT" style="text;align=left;verticalAlign=top;spacingLeft=4;spacingRight=4;overflow=hidden;rotatable=0;points=[[0,0.5],[1,0.5]];portConstraint=eastwest;rounded=0;shadow=0;html=0;" parent="19" vertex="1">
                    <mxGeometry y="82" width="210" height="26" as="geometry"/>
                </mxCell>
                <mxCell id="25" value="" style="line;html=1;strokeWidth=1;align=left;verticalAlign=middle;spacingTop=-1;spacingLeft=3;spacingRight=3;rotatable=0;labelPosition=right;points=[];portConstraint=eastwest;" parent="19" vertex="1">
                    <mxGeometry y="108" width="210" height="8" as="geometry"/>
                </mxCell>
                <mxCell id="26" value="autor (FK) INT NOT NULL" style="text;align=left;verticalAlign=top;spacingLeft=4;spacingRight=4;overflow=hidden;rotatable=0;points=[[0,0.5],[1,0.5]];portConstraint=eastwest;fillColor=#a0522d;fontColor=#ffffff;strokeColor=#6D1F00;" parent="19" vertex="1">
                    <mxGeometry y="116" width="210" height="24" as="geometry"/>
                </mxCell>
                <mxCell id="76" value="coautor(FK) INT" style="text;align=left;verticalAlign=top;spacingLeft=4;spacingRight=4;overflow=hidden;rotatable=0;points=[[0,0.5],[1,0.5]];portConstraint=eastwest;fillColor=#a0522d;fontColor=#ffffff;strokeColor=#6D1F00;" parent="19" vertex="1">
                    <mxGeometry y="140" width="210" height="24" as="geometry"/>
                </mxCell>
                <mxCell id="32" value="Autor" style="swimlane;fontStyle=0;childLayout=stackLayout;horizontal=1;startSize=30;horizontalStack=0;resizeParent=1;resizeParentMax=0;resizeLast=0;collapsible=1;marginBottom=0;" parent="1" vertex="1">
                    <mxGeometry x="530" y="390" width="220" height="180" as="geometry"/>
                </mxCell>
                <mxCell id="33" value="cod_autor (PK) SERIAL" style="text;strokeColor=#6D1F00;fillColor=#a0522d;align=left;verticalAlign=middle;spacingLeft=4;spacingRight=4;overflow=hidden;points=[[0,0.5],[1,0.5]];portConstraint=eastwest;rotatable=0;fontColor=#ffffff;" parent="32" vertex="1">
                    <mxGeometry y="30" width="220" height="30" as="geometry"/>
                </mxCell>
                <mxCell id="34" value="nombre_autor VARCHAR(50)" style="text;strokeColor=none;fillColor=none;align=left;verticalAlign=middle;spacingLeft=4;spacingRight=4;overflow=hidden;points=[[0,0.5],[1,0.5]];portConstraint=eastwest;rotatable=0;" parent="32" vertex="1">
                    <mxGeometry y="60" width="220" height="30" as="geometry"/>
                </mxCell>
                <mxCell id="35" value="apellido_autor VARCHAR(50)" style="text;strokeColor=none;fillColor=none;align=left;verticalAlign=middle;spacingLeft=4;spacingRight=4;overflow=hidden;points=[[0,0.5],[1,0.5]];portConstraint=eastwest;rotatable=0;" parent="32" vertex="1">
                    <mxGeometry y="90" width="220" height="30" as="geometry"/>
                </mxCell>
                <mxCell id="57" value="fecha_nac INT" style="text;strokeColor=none;fillColor=none;align=left;verticalAlign=middle;spacingLeft=4;spacingRight=4;overflow=hidden;points=[[0,0.5],[1,0.5]];portConstraint=eastwest;rotatable=0;" parent="32" vertex="1">
                    <mxGeometry y="120" width="220" height="30" as="geometry"/>
                </mxCell>
                <mxCell id="56" value="fecha_def INT" style="text;strokeColor=none;fillColor=none;align=left;verticalAlign=middle;spacingLeft=4;spacingRight=4;overflow=hidden;points=[[0,0.5],[1,0.5]];portConstraint=eastwest;rotatable=0;" parent="32" vertex="1">
                    <mxGeometry y="150" width="220" height="30" as="geometry"/>
                </mxCell>
                <mxCell id="38" value="Socios" style="swimlane;fontStyle=0;align=center;verticalAlign=top;childLayout=stackLayout;horizontal=1;startSize=26;horizontalStack=0;resizeParent=1;resizeLast=0;collapsible=1;marginBottom=0;rounded=0;shadow=0;strokeWidth=1;" parent="1" vertex="1">
                    <mxGeometry x="10" y="80" width="210" height="190" as="geometry">
                        <mxRectangle x="550" y="140" width="160" height="26" as="alternateBounds"/>
                    </mxGeometry>
                </mxCell>
                <mxCell id="39" value="rut (PK) INT" style="text;align=left;verticalAlign=top;spacingLeft=4;spacingRight=4;overflow=hidden;rotatable=0;points=[[0,0.5],[1,0.5]];portConstraint=eastwest;strokeColor=#432D57;fillColor=#76608a;fontColor=#ffffff;" parent="38" vertex="1">
                    <mxGeometry y="26" width="210" height="26" as="geometry"/>
                </mxCell>
                <mxCell id="40" value="nombre VARCHAR(50) NOT NULL" style="text;align=left;verticalAlign=top;spacingLeft=4;spacingRight=4;overflow=hidden;rotatable=0;points=[[0,0.5],[1,0.5]];portConstraint=eastwest;" parent="38" vertex="1">
                    <mxGeometry y="52" width="210" height="30" as="geometry"/>
                </mxCell>
                <mxCell id="41" value="apellido VARCHAR(50) NOT NULL" style="text;align=left;verticalAlign=top;spacingLeft=4;spacingRight=4;overflow=hidden;rotatable=0;points=[[0,0.5],[1,0.5]];portConstraint=eastwest;rounded=0;shadow=0;html=0;" parent="38" vertex="1">
                    <mxGeometry y="82" width="210" height="26" as="geometry"/>
                </mxCell>
                <mxCell id="42" value="telefono INT" style="text;align=left;verticalAlign=top;spacingLeft=4;spacingRight=4;overflow=hidden;rotatable=0;points=[[0,0.5],[1,0.5]];portConstraint=eastwest;rounded=0;shadow=0;html=0;" parent="38" vertex="1">
                    <mxGeometry y="108" width="210" height="26" as="geometry"/>
                </mxCell>
                <mxCell id="43" value="direccion VARCHAR(100) NOT NULL" style="text;align=left;verticalAlign=top;spacingLeft=4;spacingRight=4;overflow=hidden;rotatable=0;points=[[0,0.5],[1,0.5]];portConstraint=eastwest;rounded=0;shadow=0;html=0;" parent="38" vertex="1">
                    <mxGeometry y="134" width="210" height="26" as="geometry"/>
                </mxCell>
                <mxCell id="45" value="" style="line;html=1;strokeWidth=1;align=left;verticalAlign=middle;spacingTop=-1;spacingLeft=3;spacingRight=3;rotatable=0;labelPosition=right;points=[];portConstraint=eastwest;strokeColor=default;" parent="38" vertex="1">
                    <mxGeometry y="160" width="210" height="8" as="geometry"/>
                </mxCell>
                <mxCell id="46" value="Comuna (FK) INT" style="text;align=left;verticalAlign=top;spacingLeft=4;spacingRight=4;overflow=hidden;rotatable=0;points=[[0,0.5],[1,0.5]];portConstraint=eastwest;fillColor=#6d8764;fontColor=#ffffff;strokeColor=#3A5431;" parent="38" vertex="1">
                    <mxGeometry y="168" width="210" height="20" as="geometry"/>
                </mxCell>
                <mxCell id="73" style="edgeStyle=none;html=1;exitX=0.5;exitY=0;exitDx=0;exitDy=0;endArrow=none;endFill=0;strokeColor=default;" parent="1" edge="1">
                    <mxGeometry relative="1" as="geometry">
                        <mxPoint x="110" y="270" as="targetPoint"/>
                        <mxPoint x="110" y="330" as="sourcePoint"/>
                    </mxGeometry>
                </mxCell>
                <mxCell id="74" value="1:1" style="edgeLabel;html=1;align=center;verticalAlign=middle;resizable=0;points=[];" parent="73" vertex="1" connectable="0">
                    <mxGeometry x="0.3667" y="-1" relative="1" as="geometry">
                        <mxPoint as="offset"/>
                    </mxGeometry>
                </mxCell>
                <mxCell id="66" value="" style="endArrow=none;html=1;endFill=0;entryX=-0.017;entryY=-0.256;entryDx=0;entryDy=0;entryPerimeter=0;exitX=1;exitY=0.898;exitDx=0;exitDy=0;exitPerimeter=0;" parent="1" source="4" target="21" edge="1">
                    <mxGeometry relative="1" as="geometry">
                        <mxPoint x="490" y="168" as="sourcePoint"/>
                        <mxPoint x="450" y="171" as="targetPoint"/>
                    </mxGeometry>
                </mxCell>
                <mxCell id="67" value="1:1" style="edgeLabel;resizable=0;html=1;align=center;verticalAlign=middle;strokeColor=default;fillColor=none;" parent="66" connectable="0" vertex="1">
                    <mxGeometry relative="1" as="geometry"/>
                </mxCell>
                <mxCell id="69" value="" style="endArrow=none;html=1;entryX=1;entryY=0.5;entryDx=0;entryDy=0;endFill=0;exitX=1;exitY=0.5;exitDx=0;exitDy=0;" parent="1" source="21" target="35" edge="1">
                    <mxGeometry relative="1" as="geometry">
                        <mxPoint x="730" y="170" as="sourcePoint"/>
                        <mxPoint x="780" y="170.5" as="targetPoint"/>
                        <Array as="points">
                            <mxPoint x="800" y="175"/>
                            <mxPoint x="800" y="495"/>
                        </Array>
                    </mxGeometry>
                </mxCell>
                <mxCell id="70" value="1:n&amp;nbsp;" style="edgeLabel;resizable=0;html=1;align=center;verticalAlign=middle;strokeColor=default;fillColor=none;" parent="69" connectable="0" vertex="1">
                    <mxGeometry relative="1" as="geometry"/>
                </mxCell>
                <mxCell id="135" value="Comunas" style="swimlane;fontStyle=0;align=center;verticalAlign=top;childLayout=stackLayout;horizontal=1;startSize=26;horizontalStack=0;resizeParent=1;resizeLast=0;collapsible=1;marginBottom=0;rounded=0;shadow=0;strokeWidth=1;" parent="1" vertex="1">
                    <mxGeometry x="10" y="330" width="240" height="80" as="geometry">
                        <mxRectangle x="230" y="140" width="160" height="26" as="alternateBounds"/>
                    </mxGeometry>
                </mxCell>
                <mxCell id="136" value="id (PK) INT" style="text;align=left;verticalAlign=top;spacingLeft=4;spacingRight=4;overflow=hidden;rotatable=0;points=[[0,0.5],[1,0.5]];portConstraint=eastwest;" parent="135" vertex="1">
                    <mxGeometry y="26" width="240" height="26" as="geometry"/>
                </mxCell>
                <mxCell id="93" value="nombre_comuna VARCHAR(50) NOT NULL" style="text;html=1;align=left;verticalAlign=middle;resizable=0;points=[];autosize=1;strokeColor=#3A5431;fillColor=#6d8764;fontColor=#ffffff;" parent="135" vertex="1">
                    <mxGeometry y="52" width="240" height="20" as="geometry"/>
                </mxCell>
            </root>
        </mxGraphModel>
    </diagram>
</mxfile>